<?xml version="1.0" encoding="utf-8"?><svg viewBox="0 0 512 512" xmlns="http://www.w3.org/2000/svg" xmlns:xlink="http://www.w3.org/1999/xlink"><style>:root>svg{display:none}:root>svg:target{display:block}</style><svg id="icon__arrow--down--blue" viewBox="0 0 19 24" xmlns="http://www.w3.org/2000/svg"><style>.ast0{stroke-linecap:square}.ast0,.ast1{fill:none;stroke:#007cbc;stroke-width:2}</style><g id="aarrow" transform="translate(302 9)"><path id="aLine" class="ast0" d="M-292.5-7v18.5"/><path id="aPath-4" class="ast1" d="M-284 5l-8.5 7.8L-301 5"/></g></svg><svg viewBox="0 0 15 13" id="icon__arrow-send--right--white" xmlns="http://www.w3.org/2000/svg"><text transform="translate(-12 -11)" fill="#FFF" fill-rule="evenodd" font-family="material" font-size="16"><tspan x="11" y="23"></tspan></text></svg><svg viewBox="0 0 512 512" id="icon__basket--blue" xmlns="http://www.w3.org/2000/svg"><path fill="#007CBC" d="M169.6 377.6c-22.88 0-41.6 18.72-41.6 41.6 0 22.88 18.72 41.6 41.6 41.6s41.6-18.72 41.6-41.6c0-22.88-18.72-41.6-41.6-41.6zM48 51.2v41.6h41.6l74.88 151.68-31.31 50.95c-3.12 5.2-5.2 12.48-5.2 19.76 0 27.85 19.02 41.6 44.82 41.6H416v-40H177.89c-3.12 0-5.2-2.08-5.2-5.2 0-1.04 2.21-5.2 2.21-5.2l20.78-32.8h154.95c15.6 0 29.13-8.32 36.4-21.84l74.88-128.8c1.24-2.46 2.08-6.25 2.08-10.4 0-11.45-9.36-19.76-20.8-19.76H135.36L115.6 51.2H48zm326.4 326.4c-22.88 0-41.6 18.72-41.6 41.6 0 22.88 18.72 41.6 41.6 41.6s41.6-18.72 41.6-41.6c0-22.88-18.72-41.6-41.6-41.6z"/></svg><svg viewBox="0 0 512 512" id="icon__basket--white" xmlns="http://www.w3.org/2000/svg"><path fill="#FFF" d="M169.6 377.6c-22.88 0-41.6 18.72-41.6 41.6 0 22.88 18.72 41.6 41.6 41.6s41.6-18.72 41.6-41.6c0-22.88-18.72-41.6-41.6-41.6zM48 51.2v41.6h41.6l74.88 151.68-31.31 50.95c-3.12 5.2-5.2 12.48-5.2 19.76 0 27.85 19.02 41.6 44.82 41.6H416v-40H177.89c-3.12 0-5.2-2.08-5.2-5.2 0-1.04 2.21-5.2 2.21-5.2l20.78-32.8h154.95c15.6 0 29.13-8.32 36.4-21.84l74.88-128.8c1.24-2.46 2.08-6.25 2.08-10.4 0-11.45-9.36-19.76-20.8-19.76H135.36L115.6 51.2H48zm326.4 326.4c-22.88 0-41.6 18.72-41.6 41.6 0 22.88 18.72 41.6 41.6 41.6s41.6-18.72 41.6-41.6c0-22.88-18.72-41.6-41.6-41.6z"/></svg><svg viewBox="0 0 21 2" id="icon__burger--close--blue" xmlns="http://www.w3.org/2000/svg"><path d="M0 0h21v2H0z" fill="#007CBC" fill-rule="evenodd"/></svg><svg viewBox="0 0 13 22" id="icon__burger--open--blue" xmlns="http://www.w3.org/2000/svg"><g fill="#007CBC" fill-rule="evenodd"><path d="M.5 21.5V.5h2v21zM5.5 21.5V.5h2v21zM10.5 21.5V.5h2v21z"/></g></svg><svg viewBox="0 0 16 16" id="icon__facebook--grey" xmlns="http://www.w3.org/2000/svg"><path fill="#4D4D4D" d="M14.22 0H1.78C.8 0 0 .8 0 1.78v12.44C0 15.2.8 16 1.78 16H8V9.78H6.22v-2.2H8V5.76c0-1.92 1.08-3.27 3.35-3.27h1.6V4.8h-1.06c-.88 0-1.22.66-1.22 1.28v1.5h2.28l-.5 2.2h-1.78V16h3.56c.97 0 1.77-.8 1.77-1.78V1.78C16 .8 15.2 0 14.22 0"/></svg><svg viewBox="0 0 16 16" id="icon__facebook--white" xmlns="http://www.w3.org/2000/svg"><path fill="#FFF" d="M14.22 0H1.78C.8 0 0 .8 0 1.78v12.44C0 15.2.8 16 1.78 16H8V9.78H6.22v-2.2H8V5.76c0-1.92 1.08-3.27 3.35-3.27h1.6V4.8h-1.06c-.88 0-1.22.66-1.22 1.28v1.5h2.28l-.5 2.2h-1.78V16h3.56c.97 0 1.77-.8 1.77-1.78V1.78C16 .8 15.2 0 14.22 0"/></svg><svg viewBox="0 0 16 16" id="icon__instagram--grey" xmlns="http://www.w3.org/2000/svg"><defs><filter id="ia" filterUnits="userSpaceOnUse" x="0" y="0" width="16" height="16"><feColorMatrix values="1 0 0 0 0 0 1 0 0 0 0 0 1 0 0 0 0 0 1 0"/></filter></defs><mask maskUnits="userSpaceOnUse" x="0" y="0" width="16" height="16" id="ib"><path fill="#FFF" d="M0 16V0h16v16z" filter="url(#ia)"/></mask><path mask="url(#ib)" fill="#4D4D4D" d="M13.23 3.73a.96.96 0 1 1-1.92 0 .96.96 0 0 1 1.92 0M8 10.67a2.67 2.67 0 1 1-.001-5.339A2.67 2.67 0 0 1 8 10.67m0-6.78a4.11 4.11 0 1 0 0 8.22 4.11 4.11 0 0 0 0-8.22m6.51 7.34c-.01.51-.1 1.01-.28 1.49-.27.7-.82 1.25-1.52 1.52-.48.18-.98.27-1.49.28-.84.04-1.1.05-3.23.05-2.14 0-2.39-.01-3.23-.05a4.47 4.47 0 0 1-1.49-.28c-.35-.13-.66-.33-.92-.6-.26-.26-.47-.57-.6-.92a4.47 4.47 0 0 1-.28-1.49c-.02-.84-.03-1.09-.03-3.23 0-2.14.01-2.39.05-3.23.01-.51.1-1.01.28-1.49.13-.35.33-.66.6-.92.26-.26.57-.47.92-.6.48-.18.98-.27 1.49-.28.83-.03 1.08-.04 3.22-.04s2.39.01 3.23.05c.51.01 1.01.1 1.49.28.35.13.66.33.92.6.27.26.47.57.6.92.18.48.27.98.28 1.49.04.84.05 1.1.05 3.23-.01 2.13-.02 2.38-.06 3.22m1.44-6.53c-.01-.66-.14-1.32-.37-1.94-.2-.53-.52-1.02-.92-1.42-.4-.41-.88-.72-1.42-.92-.62-.23-1.28-.36-1.94-.37C10.45.01 10.17 0 8 0S5.56.01 4.7.05c-.66.01-1.32.14-1.94.37-.53.2-1.02.52-1.42.92-.41.4-.72.88-.92 1.42C.19 3.38.06 4.04.05 4.7.01 5.56 0 5.83 0 8s.01 2.45.05 3.3c.01.66.14 1.32.37 1.94.2.53.52 1.02.92 1.42.4.41.88.72 1.42.92.62.23 1.28.36 1.94.37.86.04 1.13.05 3.3.05s2.45-.01 3.3-.05c.66-.01 1.32-.14 1.94-.37a4.114 4.114 0 0 0 2.34-2.34c.23-.62.36-1.28.37-1.94.04-.85.05-1.13.05-3.3s-.01-2.44-.05-3.3"/></svg><svg viewBox="0 0 16 16" id="icon__instagram--white" xmlns="http://www.w3.org/2000/svg"><defs><filter id="ja" filterUnits="userSpaceOnUse" x="0" y="0" width="16" height="16"><feColorMatrix values="1 0 0 0 0 0 1 0 0 0 0 0 1 0 0 0 0 0 1 0"/></filter></defs><mask maskUnits="userSpaceOnUse" x="0" y="0" width="16" height="16" id="jb"><path fill="#FFF" d="M0 16V0h16v16z" filter="url(#ja)"/></mask><path mask="url(#jb)" fill="#FFF" d="M13.23 3.73a.96.96 0 1 1-1.92 0 .96.96 0 0 1 1.92 0M8 10.67a2.67 2.67 0 1 1-.001-5.339A2.67 2.67 0 0 1 8 10.67m0-6.78a4.11 4.11 0 1 0 0 8.22 4.11 4.11 0 0 0 0-8.22m6.51 7.34c-.01.51-.1 1.01-.28 1.49-.27.7-.82 1.25-1.52 1.52-.48.18-.98.27-1.49.28-.84.04-1.1.05-3.23.05-2.14 0-2.39-.01-3.23-.05a4.47 4.47 0 0 1-1.49-.28c-.35-.13-.66-.33-.92-.6-.26-.26-.47-.57-.6-.92a4.47 4.47 0 0 1-.28-1.49c-.02-.84-.03-1.09-.03-3.23 0-2.14.01-2.39.05-3.23.01-.51.1-1.01.28-1.49.13-.35.33-.66.6-.92.26-.26.57-.47.92-.6.48-.18.98-.27 1.49-.28.83-.03 1.08-.04 3.22-.04s2.39.01 3.23.05c.51.01 1.01.1 1.49.28.35.13.66.33.92.6.27.26.47.57.6.92.18.48.27.98.28 1.49.04.84.05 1.1.05 3.23-.01 2.13-.02 2.38-.06 3.22m1.44-6.53c-.01-.66-.14-1.32-.37-1.94-.2-.53-.52-1.02-.92-1.42-.4-.41-.88-.72-1.42-.92-.62-.23-1.28-.36-1.94-.37C10.45.01 10.17 0 8 0S5.56.01 4.7.05c-.66.01-1.32.14-1.94.37-.53.2-1.02.52-1.42.92-.41.4-.72.88-.92 1.42C.19 3.38.06 4.04.05 4.7.01 5.56 0 5.83 0 8s.01 2.45.05 3.3c.01.66.14 1.32.37 1.94.2.53.52 1.02.92 1.42.4.41.88.72 1.42.92.62.23 1.28.36 1.94.37.86.04 1.13.05 3.3.05s2.45-.01 3.3-.05c.66-.01 1.32-.14 1.94-.37a4.114 4.114 0 0 0 2.34-2.34c.23-.62.36-1.28.37-1.94.04-.85.05-1.13.05-3.3s-.01-2.44-.05-3.3"/></svg><svg viewBox="0 0 34 50" id="icon__lightning" xmlns="http://www.w3.org/2000/svg"><path fill="#007CBC" d="M9.25 49.42a1.003 1.003 0 0 1-.97-1.24l4.78-19.34H1c-.33 0-.65-.17-.83-.45s-.22-.63-.09-.94L11.24.62a1 1 0 0 1 .93-.62h13.92c.34 0 .65.17.84.45.17.28.21.64.07.95l-6.81 15.77h12.23c.38 0 .73.22.9.56.17.34.13.75-.1 1.05L10.04 49.03a1 1 0 0 1-.79.39zM2.5 26.83h11.83c.31 0 .6.14.79.38.19.24.26.56.18.86L11.37 44l19.02-24.84H18.67c-.34 0-.65-.17-.84-.45-.18-.28-.22-.64-.08-.95L24.56 2H12.83L2.5 26.83z"/></svg><svg viewBox="0 0 48 48" id="icon__pharmaceutical" xmlns="http://www.w3.org/2000/svg"><path fill="#007CBC" d="M41.8 23.6L33.4 32l-9-9-8.9-8.9 8.4-8.4c4.9-4.9 13-4.9 17.9 0s4.9 13 0 17.9m1.4-19.3c-5.7-5.7-15-5.7-20.7 0l-8.4 8.4-1.4 1.4-8.4 8.4c-5.7 5.7-5.7 15 0 20.7 2.9 2.9 6.6 4.3 10.4 4.3s7.5-1.4 10.4-4.3l8.4-8.4 1.4-1.4 8.4-8.4c5.6-5.7 5.6-15-.1-20.7"/></svg><svg viewBox="0 0 43 50" id="icon__robinet" xmlns="http://www.w3.org/2000/svg"><path fill="#007CBC" d="M38 49.75c-2.62 0-4.75-1.98-4.75-4.42 0-2.17 3.46-6.86 4.15-7.78.28-.38.91-.38 1.2 0 .69.92 4.15 5.62 4.15 7.78 0 2.44-2.13 4.42-4.75 4.42zm0-10.48c-1.45 2.03-3.25 4.93-3.25 6.06 0 1.61 1.46 2.92 3.25 2.92s3.25-1.31 3.25-2.92c0-1.13-1.8-4.03-3.25-6.06zM33.87 12.25h-7.12V8c0-.41-.34-.75-.75-.75h-4.8c.03-.08.05-.16.05-.25V1.75H28c.41 0 .75-.34.75-.75S28.41.25 28 .25H13c-.41 0-.75.34-.75.75s.34.75.75.75h6.75V7c0 .09.02.17.05.25H15c-.41 0-.75.34-.75.75v4.25h-7.5V10c0-.41-.34-.75-.75-.75H1c-.41 0-.75.34-.75.75v16c0 .41.34.75.75.75h5c.41 0 .75-.34.75-.75v-2.75h25.21V32c0 .41.34.75.75.75H42c.41 0 .75-.34.75-.75V21.31c0-4.99-3.98-9.06-8.88-9.06zm-18.12-3.5h9.5v3.5h-9.5v-3.5zm-10.5 16.5h-3.5v-14.5h3.5v14.5zm36 6h-7.79V22.5c0-.41-.34-.75-.75-.75H6.75v-8h27.12c4.07 0 7.38 3.39 7.38 7.56v9.94z"/></svg><svg viewBox="0 0 49 52" id="icon__sports" xmlns="http://www.w3.org/2000/svg"><path fill="#007CBC" d="M20.1 5.3c-.9-.3-1.9-.1-2.5.6L11 12.4c-1 .9-1.1 2.5-.2 3.5.9 1.1 2.5 1.2 3.6.3l.1-.1 5.5-5.5 4.5 2.4-4.7 7c-1.5 2.6-1.3 5.8.6 8.1l6.7 8.5-4.7 10.2c-.6 1.3-.3 2.8.7 3.8.4.3.9.6 1.4.7.1 0 .2 0 .4.1 1.3.1 2.6-.6 3.1-1.8l5.5-12c.5-1 .4-2.2-.3-3.1L29 26.6l3.9-6.8 2 4c.3.8 1 1.4 1.8 1.6h.2l9.3 1.2c.7.1 1.4-.1 1.9-.5s.9-1.1.9-1.8c.1-1.4-1-2.6-2.3-2.7l-7.6-1-2.1-5.2c-.5-1.2-1.3-2.2-2.4-3-4.2-2.9-8.8-5.1-13.6-6.7l-.9-.4zm17.6 6c3.1.7 6.1-1.2 6.8-4.3S43.3.9 40.2.2s-6.1 1.2-6.8 4.3c-.7 3 1.3 6 4.3 6.8zm-33.8 18l7.8 1.8 3.6-4.9c.2-.2.5-.3.7-.1.1.1.2.2.2.3.3 1.3.9 2.5 1.7 3.6l1.2 1.5c.3.4.2.9-.1 1.2l-3.8 3.8c-.7.9-1.9 1.2-3 1l-9.8-2.2c-1.7-.4-2.7-2-2.3-3.7 0-.1.1-.2.1-.3.5-1.6 2.1-2.4 3.7-2z"/></svg><svg id="icon__sports-hover" viewBox="0 0 49 52" xmlns="http://www.w3.org/2000/svg"><style>.ost0{fill:#0274ae}</style><path id="oFill-1" class="ost0" d="M20.1 5.3c-.9-.3-1.9-.1-2.5.6L11 12.4c-1 .9-1.1 2.5-.2 3.5.9 1.1 2.5 1.2 3.6.3l.1-.1 5.5-5.5 4.5 2.4-4.7 7c-1.5 2.6-1.3 5.8.6 8.1l6.7 8.5-4.7 10.2c-.6 1.3-.3 2.8.7 3.8.4.3.9.6 1.4.7.1 0 .2 0 .4.1 1.3.1 2.6-.6 3.1-1.8l5.5-12c.5-1 .4-2.2-.3-3.1L29 26.6l3.9-6.8 2 4c.3.8 1 1.4 1.8 1.6h.2l9.3 1.2c.7.1 1.4-.1 1.9-.5s.9-1.1.9-1.8c.1-1.4-1-2.6-2.3-2.7l-7.6-1-2.1-5.2c-.5-1.2-1.3-2.2-2.4-3-4.2-2.9-8.8-5.1-13.6-6.7l-.9-.4zm17.6 6c3.1.7 6.1-1.2 6.8-4.3S43.3.9 40.2.2s-6.1 1.2-6.8 4.3c-.7 3 1.3 6 4.3 6.8zm-33.8 18l7.8 1.8 3.6-4.9c.2-.2.5-.3.7-.1.1.1.2.2.2.3.3 1.3.9 2.5 1.7 3.6l1.2 1.5c.3.4.2.9-.1 1.2l-3.8 3.8c-.7.9-1.9 1.2-3 1l-9.8-2.2c-1.7-.4-2.7-2-2.3-3.7 0-.1.1-.2.1-.3.5-1.6 2.1-2.4 3.7-2z"/></svg><svg viewBox="0 0 16 16" id="icon__tag--blue" xmlns="http://www.w3.org/2000/svg"><path fill="#007CBC" d="M.9.1C.5.1.1.4.1.9v6c0 .5.2.9.5 1.3L8 15.7c.3.3.8.3 1.1 0l6.5-6.4c.3-.3.3-.8 0-1.1L8.2.7C7.9.4 7.4.2 6.9.1h-6zm2.3 4.5c0-.8.7-1.5 1.5-1.5s1.5.7 1.5 1.5-.7 1.5-1.5 1.5-1.5-.6-1.5-1.5z"/></svg><svg viewBox="0 0 16 16" id="icon__tag--white" xmlns="http://www.w3.org/2000/svg"><path fill="#FFF" d="M.9.1C.5.1.1.4.1.9v6c0 .5.2.9.5 1.3L8 15.7c.3.3.8.3 1.1 0l6.5-6.4c.3-.3.3-.8 0-1.1L8.2.7C7.9.4 7.4.2 6.9.1h-6zm2.3 4.5c0-.8.7-1.5 1.5-1.5s1.5.7 1.5 1.5-.7 1.5-1.5 1.5-1.5-.6-1.5-1.5z"/></svg><svg viewBox="0 0 17 13" id="icon__twitter--grey" xmlns="http://www.w3.org/2000/svg"><path fill="#4D4D4D" d="M14.8 3.2v.4c0 4.3-3.4 9.3-9.6 9.3-1.9 0-3.7-.5-5.2-1.5h.8c1.6 0 3-.5 4.2-1.4-1.5 0-2.7-1-3.2-2.3.2 0 .4.1.6.1.3 0 .6 0 .9-.1C1.8 7.5.7 6.2.7 4.6c.5.2 1 .4 1.5.4C1.3 4.4.7 3.4.7 2.2c0-.6.2-1.2.5-1.6 1.7 2 4.2 3.3 7 3.4-.1-.2-.2-.5-.2-.7C8 1.5 9.5 0 11.4 0c1 0 1.8.4 2.5 1 .8-.1 1.5-.4 2.1-.8-.2.8-.8 1.4-1.5 1.8.7-.1 1.3-.3 1.9-.5-.4.7-1 1.3-1.6 1.7"/></svg><svg viewBox="0 0 17 13" id="icon__twitter--white" xmlns="http://www.w3.org/2000/svg"><path fill="#FFF" d="M14.8 3.2v.4c0 4.3-3.4 9.3-9.6 9.3-1.9 0-3.7-.5-5.2-1.5h.8c1.6 0 3-.5 4.2-1.4-1.5 0-2.7-1-3.2-2.3.2 0 .4.1.6.1.3 0 .6 0 .9-.1C1.8 7.5.7 6.2.7 4.6c.5.2 1 .4 1.5.4C1.3 4.4.7 3.4.7 2.2c0-.6.2-1.2.5-1.6 1.7 2 4.2 3.3 7 3.4-.1-.2-.2-.5-.2-.7C8 1.5 9.5 0 11.4 0c1 0 1.8.4 2.5 1 .8-.1 1.5-.4 2.1-.8-.2.8-.8 1.4-1.5 1.8.7-.1 1.3-.3 1.9-.5-.4.7-1 1.3-1.6 1.7"/></svg></svg>